<svg xmlns="http://www.w3.org/2000/svg" version="1.1" xmlns:xlink="http://www.w3.org/1999/xlink" xmlns:svgjs="http://svgjs.dev/svgjs" width="1000" height="999" viewBox="0 0 1000 999"><g transform="matrix(1,0,0,1,-0.215743440233382,-0.21552769679306039)"><svg viewBox="0 0 343 343" data-background-color="#ffffff" preserveAspectRatio="xMidYMid meet" height="999" width="1000" xmlns="http://www.w3.org/2000/svg" xmlns:xlink="http://www.w3.org/1999/xlink"><g id="tight-bounds" transform="matrix(1,0,0,1,0.0740000000000407,0.07400000000001228)"><svg viewBox="0 0 342.85155851775386 342.85155851775386" height="342.85155851775386" width="342.85155851775386"><g><svg></svg></g><g><svg viewBox="0 0 342.85155851775386 342.85155851775386" height="342.85155851775386" width="342.85155851775386"><g><path d="M0 171.426c0-94.676 76.75-171.426 171.426-171.426 94.676 0 171.426 76.75 171.426 171.426 0 94.676-76.75 171.426-171.426 171.426-94.676 0-171.426-76.75-171.426-171.426zM171.426 331.256c88.272 0 159.83-71.559 159.83-159.83 0-88.272-71.559-159.83-159.83-159.831-88.272 0-159.83 71.559-159.831 159.831 0 88.272 71.559 159.83 159.831 159.83z" data-fill-palette-color="tertiary" fill="#ee3e38" stroke="transparent"></path><ellipse rx="164.56874808852186" ry="164.56874808852186" cx="171.42577925887693" cy="171.42577925887693" fill="#ee3e38" stroke="transparent" stroke-width="0" fill-opacity="1" data-fill-palette-color="tertiary"></ellipse></g><g transform="matrix(1,0,0,1,64.84655864529837,107.1365099108065)"><svg viewBox="0 0 213.1584412271571 128.57853869614087" height="128.57853869614087" width="213.1584412271571"><g><svg viewBox="0 0 213.1584412271571 128.57853869614087" height="128.57853869614087" width="213.1584412271571"><g><svg viewBox="0 0 213.1584412271571 128.57853869614087" height="128.57853869614087" width="213.1584412271571"><g><svg viewBox="0 0 213.1584412271571 128.57853869614087" height="128.57853869614087" width="213.1584412271571"><g id="textblocktransform"><svg viewBox="0 0 213.1584412271571 128.57853869614087" height="128.57853869614087" width="213.1584412271571" id="textblock"><g><svg viewBox="0 0 213.1584412271571 128.57853869614087" height="128.57853869614087" width="213.1584412271571"><g transform="matrix(1,0,0,1,0,0)"><svg width="213.1584412271571" viewBox="3.130000114440918 -36.25 60.90999984741211 36.7400016784668" height="128.57853869614087" data-palette-color="#ffffff"><path d="M14.4-3.81L14.4-3.81Q15.87-3.81 17.13-4.19 18.38-4.57 19.31-5.26 20.24-5.96 20.76-6.97 21.29-7.98 21.29-9.25L21.29-9.25Q21.29-10.77 20.57-11.82 19.85-12.87 18.65-13.66 17.46-14.45 15.94-15.09 14.43-15.72 12.85-16.38 11.28-17.04 9.77-17.83 8.25-18.63 7.06-19.74 5.86-20.85 5.14-22.39 4.42-23.93 4.42-26.1L4.42-26.1Q4.42-28.47 5.32-30.35 6.23-32.23 7.86-33.54 9.5-34.86 11.77-35.56 14.04-36.25 16.77-36.25L16.77-36.25Q17.58-36.25 18.63-36.18 19.68-36.11 20.87-35.95 22.07-35.79 23.38-35.53 24.68-35.28 26-34.89L26-34.89 25.05-30.15 24.58-29.91Q23.29-30.49 22.07-30.88 20.85-31.27 19.75-31.52 18.65-31.76 17.71-31.86 16.77-31.96 16.06-31.96L16.06-31.96Q14.72-31.96 13.62-31.64 12.52-31.32 11.76-30.71 10.99-30.1 10.56-29.21 10.13-28.32 10.13-27.17L10.13-27.17Q10.13-25.63 10.86-24.55 11.6-23.46 12.78-22.63 13.96-21.8 15.49-21.15 17.02-20.51 18.62-19.84 20.21-19.17 21.74-18.38 23.27-17.6 24.45-16.53 25.63-15.45 26.37-14 27.1-12.55 27.1-10.52L27.1-10.52Q27.1-8.25 26.15-6.25 25.2-4.25 23.45-2.75 21.7-1.25 19.26-0.38 16.82 0.49 13.82 0.49L13.82 0.49Q12.6 0.49 11.25 0.33 9.91 0.17 8.52-0.12 7.13-0.42 5.76-0.85 4.39-1.29 3.13-1.86L3.13-1.86 4.1-6.64 4.59-6.88Q7.18-5.47 9.64-4.64 12.11-3.81 14.4-3.81ZM64.04-17.09L64.04-1.88Q60.62-0.56 57.54-0.04 54.47 0.49 51.83 0.49L51.83 0.49Q47.53 0.49 44.15-0.74 40.77-1.98 38.4-4.24 36.03-6.49 34.79-9.69 33.54-12.89 33.54-16.82L33.54-16.82Q33.54-19.9 34.3-22.53 35.06-25.17 36.4-27.33 37.74-29.49 39.62-31.15 41.5-32.81 43.75-33.95 45.99-35.08 48.53-35.67 51.07-36.25 53.76-36.25L53.76-36.25Q54.64-36.25 55.71-36.18 56.78-36.11 57.99-35.95 59.2-35.79 60.5-35.53 61.79-35.28 63.11-34.89L63.11-34.89 62.16-30.18 61.67-29.93Q59.1-31.13 56.86-31.54 54.61-31.96 52.98-31.96L52.98-31.96Q50-31.96 47.58-30.9 45.16-29.83 43.43-27.97 41.7-26.1 40.76-23.55 39.82-21 39.82-17.99L39.82-17.99Q39.82-15.14 40.68-12.57 41.55-10.01 43.21-8.06 44.87-6.1 47.26-4.96 49.66-3.81 52.73-3.81L52.73-3.81Q54.03-3.81 55.58-4.03 57.13-4.25 58.64-4.74L58.64-4.74 58.64-17.09 64.04-17.09Z" opacity="1" transform="matrix(1,0,0,1,0,0)" fill="#ffffff" class="wordmark-text-0" data-fill-palette-color="quaternary" id="text-0"></path></svg></g></svg></g></svg></g></svg></g><g></g></svg></g></svg></g></svg></g></svg></g><defs></defs></svg><rect width="342.85155851775386" height="342.85155851775386" fill="none" stroke="none" visibility="hidden"></rect></g></svg></g></svg>